  0
SECTION
  2
BLOCKS
  0
ENDSEC
  0
SECTION
  2
ENTITIES
  0
LINE
  8
0
 10
10.51
 20
4.00999
 11
18.5
 21
4.00999
  0
LINE
  8
0
 10
18.5
 20
4.00999
 11
18.5
 21
0
  0
LINE
  8
0
 10
18.5
 20
0
 11
30.51
 21
0
  0
LINE
  8
0
 10
30.51
 20
0
 11
30.51
 21
4.00999
  0
LINE
  8
0
 10
30.51
 20
4.00999
 11
38.5
 21
4.00999
  0
LINE
  8
0
 10
38.5
 20
4.00999
 11
38.5
 21
0
  0
LINE
  8
0
 10
38.5
 20
0
 11
50.51
 21
0
  0
LINE
  8
0
 10
50.51
 20
0
 11
50.51
 21
4.00999
  0
LINE
  8
0
 10
50.51
 20
4.00999
 11
58.5
 21
4.00999
  0
LINE
  8
0
 10
58.5
 20
4.00999
 11
58.5
 21
0
  0
LINE
  8
0
 10
58.5
 20
0
 11
70.51
 21
0
  0
LINE
  8
0
 10
70.51
 20
0
 11
70.51
 21
4.00999
  0
LINE
  8
0
 10
70.51
 20
4.00999
 11
78.5
 21
4.00999
  0
LINE
  8
0
 10
78.5
 20
4.00999
 11
78.5
 21
0
  0
LINE
  8
0
 10
78.5
 20
0
 11
90.51
 21
0
  0
LINE
  8
0
 10
90.51
 20
0
 11
90.51
 21
4.00999
  0
LINE
  8
0
 10
90.51
 20
4.00999
 11
98.5
 21
4.00999
  0
LINE
  8
0
 10
98.5
 20
4.00999
 11
98.5
 21
0
  0
LINE
  8
0
 10
98.5
 20
0
 11
110.51
 21
0
  0
LINE
  8
0
 10
110.51
 20
0
 11
110.51
 21
4.00999
  0
LINE
  8
0
 10
110.51
 20
4.00999
 11
118.5
 21
4.00999
  0
LINE
  8
0
 10
118.5
 20
4.00999
 11
118.5
 21
0
  0
LINE
  8
0
 10
118.5
 20
0
 11
130.51
 21
0
  0
LINE
  8
0
 10
130.51
 20
0
 11
130.51
 21
4.00999
  0
LINE
  8
0
 10
130.51
 20
4.00999
 11
138.5
 21
4.00999
  0
LINE
  8
0
 10
138.5
 20
4.00999
 11
138.5
 21
0
  0
LINE
  8
0
 10
138.5
 20
0
 11
150
 21
0
  0
LINE
  8
0
 10
150
 20
0
 11
150
 21
40
  0
LINE
  8
0
 10
150
 20
40
 11
138.5
 21
40
  0
LINE
  8
0
 10
138.5
 20
40
 11
138.5
 21
36.01
  0
LINE
  8
0
 10
138.5
 20
36.01
 11
130.51
 21
36.01
  0
LINE
  8
0
 10
130.51
 20
36.01
 11
130.51
 21
40
  0
LINE
  8
0
 10
130.51
 20
40
 11
125
 21
40
  0
LINE
  8
0
 10
125
 20
40
 11
125
 21
75
  0
LINE
  8
0
 10
125
 20
75
 11
124.882
 21
76.88
  0
LINE
  8
0
 10
124.882
 20
76.88
 11
124.529
 21
78.7303
  0
LINE
  8
0
 10
124.529
 20
78.7303
 11
123.947
 21
80.5219
  0
LINE
  8
0
 10
123.947
 20
80.5219
 11
123.145
 21
82.2263
  0
LINE
  8
0
 10
123.145
 20
82.2263
 11
122.135
 21
83.8168
  0
LINE
  8
0
 10
122.135
 20
83.8168
 11
120.935
 21
85.2682
  0
LINE
  8
0
 10
120.935
 20
85.2682
 11
119.561
 21
86.5577
  0
LINE
  8
0
 10
119.561
 20
86.5577
 11
118.037
 21
87.6649
  0
LINE
  8
0
 10
118.037
 20
87.6649
 11
116.387
 21
88.5724
  0
LINE
  8
0
 10
116.387
 20
88.5724
 11
114.635
 21
89.2658
  0
LINE
  8
0
 10
114.635
 20
89.2658
 11
112.811
 21
89.7343
  0
LINE
  8
0
 10
112.811
 20
89.7343
 11
110.942
 21
89.9704
  0
LINE
  8
0
 10
110.942
 20
89.9704
 11
110
 21
89.9704
  0
LINE
  8
0
 10
110
 20
89.9704
 11
110
 21
90
  0
LINE
  8
0
 10
110
 20
90
 11
40
 21
90
  0
LINE
  8
0
 10
40
 20
90
 11
40
 21
89.9704
  0
LINE
  8
0
 10
40
 20
89.9704
 11
39.0581
 21
89.9704
  0
LINE
  8
0
 10
39.0581
 20
89.9704
 11
37.1893
 21
89.7343
  0
LINE
  8
0
 10
37.1893
 20
89.7343
 11
35.3647
 21
89.2658
  0
LINE
  8
0
 10
35.3647
 20
89.2658
 11
33.6133
 21
88.5724
  0
LINE
  8
0
 10
33.6133
 20
88.5724
 11
31.9626
 21
87.6649
  0
LINE
  8
0
 10
31.9626
 20
87.6649
 11
30.4386
 21
86.5577
  0
LINE
  8
0
 10
30.4386
 20
86.5577
 11
29.0655
 21
85.2682
  0
LINE
  8
0
 10
29.0655
 20
85.2682
 11
27.8647
 21
83.8168
  0
LINE
  8
0
 10
27.8647
 20
83.8168
 11
26.8554
 21
82.2263
  0
LINE
  8
0
 10
26.8554
 20
82.2263
 11
26.0533
 21
80.5219
  0
LINE
  8
0
 10
26.0533
 20
80.5219
 11
25.4713
 21
78.7303
  0
LINE
  8
0
 10
25.4713
 20
78.7303
 11
25.1183
 21
76.88
  0
LINE
  8
0
 10
25.1183
 20
76.88
 11
25
 21
75
  0
LINE
  8
0
 10
25
 20
75
 11
25
 21
40
  0
LINE
  8
0
 10
25
 20
40
 11
18.5
 21
40
  0
LINE
  8
0
 10
18.5
 20
40
 11
18.5
 21
36.01
  0
LINE
  8
0
 10
18.5
 20
36.01
 11
10.51
 21
36.01
  0
LINE
  8
0
 10
10.51
 20
36.01
 11
10.51
 21
40
  0
LINE
  8
0
 10
10.51
 20
40
 11
0
 21
40
  0
LINE
  8
0
 10
0
 20
40
 11
0
 21
0
  0
LINE
  8
0
 10
0
 20
0
 11
10.51
 21
0
  0
LINE
  8
0
 10
10.51
 20
0
 11
10.51
 21
4.00999
  0
LINE
  8
0
 10
110.51
 20
36.01
 11
110.51
 21
40.03
  0
LINE
  8
0
 10
110.51
 20
40.03
 11
118.5
 21
40.03
  0
LINE
  8
0
 10
118.5
 20
40.03
 11
118.5
 21
36.01
  0
LINE
  8
0
 10
118.5
 20
36.01
 11
110.51
 21
36.01
  0
LINE
  8
0
 10
90.51
 20
36.01
 11
90.51
 21
40.03
  0
LINE
  8
0
 10
90.51
 20
40.03
 11
98.5
 21
40.03
  0
LINE
  8
0
 10
98.5
 20
40.03
 11
98.5
 21
36.01
  0
LINE
  8
0
 10
98.5
 20
36.01
 11
90.51
 21
36.01
  0
LINE
  8
0
 10
70.51
 20
36.01
 11
70.51
 21
40.03
  0
LINE
  8
0
 10
70.51
 20
40.03
 11
78.5
 21
40.03
  0
LINE
  8
0
 10
78.5
 20
40.03
 11
78.5
 21
36.01
  0
LINE
  8
0
 10
78.5
 20
36.01
 11
70.51
 21
36.01
  0
LINE
  8
0
 10
50.51
 20
36.01
 11
50.51
 21
40.03
  0
LINE
  8
0
 10
50.51
 20
40.03
 11
58.5
 21
40.03
  0
LINE
  8
0
 10
58.5
 20
40.03
 11
58.5
 21
36.01
  0
LINE
  8
0
 10
58.5
 20
36.01
 11
50.51
 21
36.01
  0
LINE
  8
0
 10
30.51
 20
36.01
 11
30.51
 21
40.03
  0
LINE
  8
0
 10
30.51
 20
40.03
 11
38.5
 21
40.03
  0
LINE
  8
0
 10
38.5
 20
40.03
 11
38.5
 21
36.01
  0
LINE
  8
0
 10
38.5
 20
36.01
 11
30.51
 21
36.01
  0
LINE
  8
0
 10
10.51
 20
-36.99
 11
18.5
 21
-36.99
  0
LINE
  8
0
 10
18.5
 20
-36.99
 11
18.5
 21
-41
  0
LINE
  8
0
 10
18.5
 20
-41
 11
30.51
 21
-41
  0
LINE
  8
0
 10
30.51
 20
-41
 11
30.51
 21
-36.99
  0
LINE
  8
0
 10
30.51
 20
-36.99
 11
38.5
 21
-36.99
  0
LINE
  8
0
 10
38.5
 20
-36.99
 11
38.5
 21
-41
  0
LINE
  8
0
 10
38.5
 20
-41
 11
50.51
 21
-41
  0
LINE
  8
0
 10
50.51
 20
-41
 11
50.51
 21
-36.99
  0
LINE
  8
0
 10
50.51
 20
-36.99
 11
58.5
 21
-36.99
  0
LINE
  8
0
 10
58.5
 20
-36.99
 11
58.5
 21
-41
  0
LINE
  8
0
 10
58.5
 20
-41
 11
70.51
 21
-41
  0
LINE
  8
0
 10
70.51
 20
-41
 11
70.51
 21
-36.99
  0
LINE
  8
0
 10
70.51
 20
-36.99
 11
78.5
 21
-36.99
  0
LINE
  8
0
 10
78.5
 20
-36.99
 11
78.5
 21
-41
  0
LINE
  8
0
 10
78.5
 20
-41
 11
90.51
 21
-41
  0
LINE
  8
0
 10
90.51
 20
-41
 11
90.51
 21
-36.99
  0
LINE
  8
0
 10
90.51
 20
-36.99
 11
98.5
 21
-36.99
  0
LINE
  8
0
 10
98.5
 20
-36.99
 11
98.5
 21
-41
  0
LINE
  8
0
 10
98.5
 20
-41
 11
110.51
 21
-41
  0
LINE
  8
0
 10
110.51
 20
-41
 11
110.51
 21
-36.99
  0
LINE
  8
0
 10
110.51
 20
-36.99
 11
118.5
 21
-36.99
  0
LINE
  8
0
 10
118.5
 20
-36.99
 11
118.5
 21
-41
  0
LINE
  8
0
 10
118.5
 20
-41
 11
130.51
 21
-41
  0
LINE
  8
0
 10
130.51
 20
-41
 11
130.51
 21
-36.99
  0
LINE
  8
0
 10
130.51
 20
-36.99
 11
138.5
 21
-36.99
  0
LINE
  8
0
 10
138.5
 20
-36.99
 11
138.5
 21
-41
  0
LINE
  8
0
 10
138.5
 20
-41
 11
150
 21
-41
  0
LINE
  8
0
 10
150
 20
-41
 11
150
 21
-1
  0
LINE
  8
0
 10
150
 20
-1
 11
138.5
 21
-1
  0
LINE
  8
0
 10
138.5
 20
-1
 11
138.5
 21
-4.99001
  0
LINE
  8
0
 10
138.5
 20
-4.99001
 11
130.51
 21
-4.99001
  0
LINE
  8
0
 10
130.51
 20
-4.99001
 11
130.51
 21
-1
  0
LINE
  8
0
 10
130.51
 20
-1
 11
118.5
 21
-1
  0
LINE
  8
0
 10
118.5
 20
-1
 11
118.5
 21
-4.99001
  0
LINE
  8
0
 10
118.5
 20
-4.99001
 11
110.51
 21
-4.99001
  0
LINE
  8
0
 10
110.51
 20
-4.99001
 11
110.51
 21
-1
  0
LINE
  8
0
 10
110.51
 20
-1
 11
98.5
 21
-1
  0
LINE
  8
0
 10
98.5
 20
-1
 11
98.5
 21
-4.99001
  0
LINE
  8
0
 10
98.5
 20
-4.99001
 11
90.51
 21
-4.99001
  0
LINE
  8
0
 10
90.51
 20
-4.99001
 11
90.51
 21
-1
  0
LINE
  8
0
 10
90.51
 20
-1
 11
78.5
 21
-1
  0
LINE
  8
0
 10
78.5
 20
-1
 11
78.5
 21
-4.99001
  0
LINE
  8
0
 10
78.5
 20
-4.99001
 11
70.51
 21
-4.99001
  0
LINE
  8
0
 10
70.51
 20
-4.99001
 11
70.51
 21
-1
  0
LINE
  8
0
 10
70.51
 20
-1
 11
58.5
 21
-1
  0
LINE
  8
0
 10
58.5
 20
-1
 11
58.5
 21
-4.99001
  0
LINE
  8
0
 10
58.5
 20
-4.99001
 11
50.51
 21
-4.99001
  0
LINE
  8
0
 10
50.51
 20
-4.99001
 11
50.51
 21
-1
  0
LINE
  8
0
 10
50.51
 20
-1
 11
38.5
 21
-1
  0
LINE
  8
0
 10
38.5
 20
-1
 11
38.5
 21
-4.99001
  0
LINE
  8
0
 10
38.5
 20
-4.99001
 11
30.51
 21
-4.99001
  0
LINE
  8
0
 10
30.51
 20
-4.99001
 11
30.51
 21
-1
  0
LINE
  8
0
 10
30.51
 20
-1
 11
18.5
 21
-1
  0
LINE
  8
0
 10
18.5
 20
-1
 11
18.5
 21
-4.99001
  0
LINE
  8
0
 10
18.5
 20
-4.99001
 11
10.51
 21
-4.99001
  0
LINE
  8
0
 10
10.51
 20
-4.99001
 11
10.51
 21
-1
  0
LINE
  8
0
 10
10.51
 20
-1
 11
0
 21
-1
  0
LINE
  8
0
 10
0
 20
-1
 11
0
 21
-41
  0
LINE
  8
0
 10
0
 20
-41
 11
10.51
 21
-41
  0
LINE
  8
0
 10
10.51
 20
-41
 11
10.51
 21
-36.99
  0
LINE
  8
0
 10
18.51
 20
-106
 11
30.5
 21
-106
  0
LINE
  8
0
 10
30.5
 20
-106
 11
30.5
 21
-110.02
  0
LINE
  8
0
 10
30.5
 20
-110.02
 11
38.51
 21
-110.02
  0
LINE
  8
0
 10
38.51
 20
-110.02
 11
38.51
 21
-106
  0
LINE
  8
0
 10
38.51
 20
-106
 11
50.5
 21
-106
  0
LINE
  8
0
 10
50.5
 20
-106
 11
50.5
 21
-110.02
  0
LINE
  8
0
 10
50.5
 20
-110.02
 11
58.51
 21
-110.02
  0
LINE
  8
0
 10
58.51
 20
-110.02
 11
58.51
 21
-106
  0
LINE
  8
0
 10
58.51
 20
-106
 11
70.5
 21
-106
  0
LINE
  8
0
 10
70.5
 20
-106
 11
70.5
 21
-110.02
  0
LINE
  8
0
 10
70.5
 20
-110.02
 11
78.51
 21
-110.02
  0
LINE
  8
0
 10
78.51
 20
-110.02
 11
78.51
 21
-106
  0
LINE
  8
0
 10
78.51
 20
-106
 11
90.5
 21
-106
  0
LINE
  8
0
 10
90.5
 20
-106
 11
90.5
 21
-110.02
  0
LINE
  8
0
 10
90.5
 20
-110.02
 11
98.51
 21
-110.02
  0
LINE
  8
0
 10
98.51
 20
-110.02
 11
98.51
 21
-106
  0
LINE
  8
0
 10
98.51
 20
-106
 11
110.5
 21
-106
  0
LINE
  8
0
 10
110.5
 20
-106
 11
110.5
 21
-110.02
  0
LINE
  8
0
 10
110.5
 20
-110.02
 11
118.51
 21
-110.02
  0
LINE
  8
0
 10
118.51
 20
-110.02
 11
118.51
 21
-106
  0
LINE
  8
0
 10
118.51
 20
-106
 11
130.5
 21
-106
  0
LINE
  8
0
 10
130.5
 20
-106
 11
130.5
 21
-110.02
  0
LINE
  8
0
 10
130.5
 20
-110.02
 11
138.51
 21
-110.02
  0
LINE
  8
0
 10
138.51
 20
-110.02
 11
138.51
 21
-106
  0
LINE
  8
0
 10
138.51
 20
-106
 11
150
 21
-106
  0
LINE
  8
0
 10
150
 20
-106
 11
150
 21
-46
  0
LINE
  8
0
 10
150
 20
-46
 11
138.51
 21
-46
  0
LINE
  8
0
 10
138.51
 20
-46
 11
138.51
 21
-42
  0
LINE
  8
0
 10
138.51
 20
-42
 11
130.5
 21
-42
  0
LINE
  8
0
 10
130.5
 20
-42
 11
130.5
 21
-46
  0
LINE
  8
0
 10
130.5
 20
-46
 11
118.51
 21
-46
  0
LINE
  8
0
 10
118.51
 20
-46
 11
118.51
 21
-42
  0
LINE
  8
0
 10
118.51
 20
-42
 11
110.5
 21
-42
  0
LINE
  8
0
 10
110.5
 20
-42
 11
110.5
 21
-46
  0
LINE
  8
0
 10
110.5
 20
-46
 11
98.51
 21
-46
  0
LINE
  8
0
 10
98.51
 20
-46
 11
98.51
 21
-42
  0
LINE
  8
0
 10
98.51
 20
-42
 11
90.5
 21
-42
  0
LINE
  8
0
 10
90.5
 20
-42
 11
90.5
 21
-46
  0
LINE
  8
0
 10
90.5
 20
-46
 11
78.51
 21
-46
  0
LINE
  8
0
 10
78.51
 20
-46
 11
78.51
 21
-42
  0
LINE
  8
0
 10
78.51
 20
-42
 11
70.5
 21
-42
  0
LINE
  8
0
 10
70.5
 20
-42
 11
70.5
 21
-46
  0
LINE
  8
0
 10
70.5
 20
-46
 11
58.51
 21
-46
  0
LINE
  8
0
 10
58.51
 20
-46
 11
58.51
 21
-42
  0
LINE
  8
0
 10
58.51
 20
-42
 11
50.5
 21
-42
  0
LINE
  8
0
 10
50.5
 20
-42
 11
50.5
 21
-46
  0
LINE
  8
0
 10
50.5
 20
-46
 11
38.51
 21
-46
  0
LINE
  8
0
 10
38.51
 20
-46
 11
38.51
 21
-42
  0
LINE
  8
0
 10
38.51
 20
-42
 11
30.5
 21
-42
  0
LINE
  8
0
 10
30.5
 20
-42
 11
30.5
 21
-46
  0
LINE
  8
0
 10
30.5
 20
-46
 11
18.51
 21
-46
  0
LINE
  8
0
 10
18.51
 20
-46
 11
18.51
 21
-42
  0
LINE
  8
0
 10
18.51
 20
-42
 11
10.5
 21
-42
  0
LINE
  8
0
 10
10.5
 20
-42
 11
10.5
 21
-46
  0
LINE
  8
0
 10
10.5
 20
-46
 11
0
 21
-46
  0
LINE
  8
0
 10
0
 20
-46
 11
0
 21
-106
  0
LINE
  8
0
 10
0
 20
-106
 11
10.5
 21
-106
  0
LINE
  8
0
 10
10.5
 20
-106
 11
10.5
 21
-110.02
  0
LINE
  8
0
 10
10.5
 20
-110.02
 11
18.51
 21
-110.02
  0
LINE
  8
0
 10
18.51
 20
-110.02
 11
18.51
 21
-106
  0
LINE
  8
0
 10
18.51
 20
-175
 11
30.5
 21
-175
  0
LINE
  8
0
 10
30.5
 20
-175
 11
30.5
 21
-179.02
  0
LINE
  8
0
 10
30.5
 20
-179.02
 11
38.51
 21
-179.02
  0
LINE
  8
0
 10
38.51
 20
-179.02
 11
38.51
 21
-175
  0
LINE
  8
0
 10
38.51
 20
-175
 11
50.5
 21
-175
  0
LINE
  8
0
 10
50.5
 20
-175
 11
50.5
 21
-179.02
  0
LINE
  8
0
 10
50.5
 20
-179.02
 11
58.51
 21
-179.02
  0
LINE
  8
0
 10
58.51
 20
-179.02
 11
58.51
 21
-175
  0
LINE
  8
0
 10
58.51
 20
-175
 11
70.5
 21
-175
  0
LINE
  8
0
 10
70.5
 20
-175
 11
70.5
 21
-179.02
  0
LINE
  8
0
 10
70.5
 20
-179.02
 11
78.51
 21
-179.02
  0
LINE
  8
0
 10
78.51
 20
-179.02
 11
78.51
 21
-175
  0
LINE
  8
0
 10
78.51
 20
-175
 11
90.5
 21
-175
  0
LINE
  8
0
 10
90.5
 20
-175
 11
90.5
 21
-179.02
  0
LINE
  8
0
 10
90.5
 20
-179.02
 11
98.51
 21
-179.02
  0
LINE
  8
0
 10
98.51
 20
-179.02
 11
98.51
 21
-175
  0
LINE
  8
0
 10
98.51
 20
-175
 11
110.5
 21
-175
  0
LINE
  8
0
 10
110.5
 20
-175
 11
110.5
 21
-179.02
  0
LINE
  8
0
 10
110.5
 20
-179.02
 11
118.51
 21
-179.02
  0
LINE
  8
0
 10
118.51
 20
-179.02
 11
118.51
 21
-175
  0
LINE
  8
0
 10
118.51
 20
-175
 11
130.5
 21
-175
  0
LINE
  8
0
 10
130.5
 20
-175
 11
130.5
 21
-179.02
  0
LINE
  8
0
 10
130.5
 20
-179.02
 11
138.51
 21
-179.02
  0
LINE
  8
0
 10
138.51
 20
-179.02
 11
138.51
 21
-175
  0
LINE
  8
0
 10
138.51
 20
-175
 11
150
 21
-175
  0
LINE
  8
0
 10
150
 20
-175
 11
150
 21
-115
  0
LINE
  8
0
 10
150
 20
-115
 11
138.51
 21
-115
  0
LINE
  8
0
 10
138.51
 20
-115
 11
138.51
 21
-111
  0
LINE
  8
0
 10
138.51
 20
-111
 11
130.5
 21
-111
  0
LINE
  8
0
 10
130.5
 20
-111
 11
130.5
 21
-115
  0
LINE
  8
0
 10
130.5
 20
-115
 11
118.51
 21
-115
  0
LINE
  8
0
 10
118.51
 20
-115
 11
118.51
 21
-111
  0
LINE
  8
0
 10
118.51
 20
-111
 11
110.5
 21
-111
  0
LINE
  8
0
 10
110.5
 20
-111
 11
110.5
 21
-115
  0
LINE
  8
0
 10
110.5
 20
-115
 11
98.51
 21
-115
  0
LINE
  8
0
 10
98.51
 20
-115
 11
98.51
 21
-111
  0
LINE
  8
0
 10
98.51
 20
-111
 11
90.5
 21
-111
  0
LINE
  8
0
 10
90.5
 20
-111
 11
90.5
 21
-115
  0
LINE
  8
0
 10
90.5
 20
-115
 11
78.51
 21
-115
  0
LINE
  8
0
 10
78.51
 20
-115
 11
78.51
 21
-111
  0
LINE
  8
0
 10
78.51
 20
-111
 11
70.5
 21
-111
  0
LINE
  8
0
 10
70.5
 20
-111
 11
70.5
 21
-115
  0
LINE
  8
0
 10
70.5
 20
-115
 11
58.51
 21
-115
  0
LINE
  8
0
 10
58.51
 20
-115
 11
58.51
 21
-111
  0
LINE
  8
0
 10
58.51
 20
-111
 11
50.5
 21
-111
  0
LINE
  8
0
 10
50.5
 20
-111
 11
50.5
 21
-115
  0
LINE
  8
0
 10
50.5
 20
-115
 11
38.51
 21
-115
  0
LINE
  8
0
 10
38.51
 20
-115
 11
38.51
 21
-111
  0
LINE
  8
0
 10
38.51
 20
-111
 11
30.5
 21
-111
  0
LINE
  8
0
 10
30.5
 20
-111
 11
30.5
 21
-115
  0
LINE
  8
0
 10
30.5
 20
-115
 11
18.51
 21
-115
  0
LINE
  8
0
 10
18.51
 20
-115
 11
18.51
 21
-111
  0
LINE
  8
0
 10
18.51
 20
-111
 11
10.5
 21
-111
  0
LINE
  8
0
 10
10.5
 20
-111
 11
10.5
 21
-115
  0
LINE
  8
0
 10
10.5
 20
-115
 11
0
 21
-115
  0
LINE
  8
0
 10
0
 20
-115
 11
0
 21
-175
  0
LINE
  8
0
 10
0
 20
-175
 11
10.5
 21
-175
  0
LINE
  8
0
 10
10.5
 20
-175
 11
10.5
 21
-179.02
  0
LINE
  8
0
 10
10.5
 20
-179.02
 11
18.51
 21
-179.02
  0
LINE
  8
0
 10
18.51
 20
-179.02
 11
18.51
 21
-175
  0
ENDSEC
  0
SECTION
  2
OBJECTS
  0
DICTIONARY
  0
ENDSEC
  0
EOF
